<?xml version="1.0" standalone="no"?>
<!DOCTYPE svg PUBLIC "-//W3C//DTD SVG 20010904//EN"
 "http://www.w3.org/TR/2001/REC-SVG-20010904/DTD/svg10.dtd">
<svg version="1.0" xmlns="http://www.w3.org/2000/svg"
 width="460.000000pt" height="460.000000pt" viewBox="0 0 460.000000 460.000000"
 preserveAspectRatio="xMidYMid meet">
<metadata>
Created by potrace 1.14, written by Peter Selinger 2001-2017
</metadata>
<g transform="translate(0.000000,460.000000) scale(0.100000,-0.100000)"
fill="#000000" stroke="none">
<path d="M2325 4293 c-55 -8 -104 -18 -109 -24 -6 -5 -23 -9 -38 -9 -15 0 -28
-4 -28 -9 0 -5 -12 -12 -26 -15 -32 -8 -187 -168 -191 -198 -2 -12 -15 -37
-29 -55 -33 -44 -51 -89 -69 -173 -8 -39 -22 -84 -30 -100 -18 -35 -19 -44 -3
-34 8 5 9 2 3 -12 -16 -35 8 -304 27 -304 4 0 8 -26 8 -57 0 -40 3 -54 10 -47
7 7 11 67 11 150 0 98 6 167 19 235 24 116 40 156 77 190 29 27 142 76 178 77
11 0 70 6 130 12 129 14 303 9 315 -9 4 -7 25 -14 46 -17 65 -7 109 -13 114
-15 3 -1 8 -1 13 0 4 0 7 -3 7 -9 0 -5 7 -10 15 -10 8 0 15 -5 15 -11 0 -8 4
-8 15 1 16 13 35 6 35 -15 0 -12 23 -27 45 -29 6 -1 11 -16 13 -33 2 -19 9
-33 16 -33 8 0 16 -17 20 -37 4 -21 11 -64 17 -97 5 -32 21 -80 34 -107 22
-43 25 -61 25 -161 0 -104 2 -115 24 -143 l24 -30 21 25 c11 14 20 31 21 39 0
8 3 11 7 8 3 -4 12 -2 20 4 9 8 17 8 26 1 10 -8 27 -7 65 6 l52 17 1 75 c2 89
4 113 13 135 3 9 1 25 -4 36 -9 15 -7 19 5 19 14 0 15 6 9 33 -4 17 -8 39 -9
47 0 9 -4 20 -8 27 -4 6 -2 25 4 43 9 23 9 34 0 43 -6 6 -11 31 -11 56 0 30
-9 61 -25 89 -14 24 -22 48 -19 53 3 5 -4 9 -15 9 -12 0 -21 5 -21 11 0 6 -7
9 -15 5 -8 -3 -15 -1 -15 4 0 6 7 10 15 10 22 0 18 18 -6 25 -19 6 -20 8 -3
26 16 18 16 19 -12 20 -16 1 -32 1 -36 0 -12 -2 -10 17 2 24 8 5 8 11 1 19 -6
7 -8 15 -6 18 7 7 -77 28 -87 22 -11 -7 -48 15 -48 29 0 7 -10 21 -22 31 -21
18 -22 18 -36 0 -13 -18 -14 -17 -8 8 3 14 9 34 13 45 5 15 1 13 -20 -6 l-27
-24 -6 32 c-5 23 -9 29 -15 19 -7 -10 -11 -7 -16 11 -5 21 -7 22 -12 7 -6 -16
-10 -15 -43 7 -22 16 -40 22 -49 17 -7 -5 -17 -6 -21 -4 -5 3 -43 7 -86 8 -43
1 -83 6 -89 9 -6 4 -25 2 -43 -4 -23 -9 -34 -9 -43 0 -6 6 -16 11 -21 10 -6
-1 -56 -8 -111 -16z"/>
<path d="M2493 3476 c-30 -17 -45 -36 -39 -51 5 -15 37 -13 131 7 56 13 89 35
52 36 -12 1 -45 5 -74 10 -33 5 -59 5 -70 -2z"/>
<path d="M1905 3454 c-26 -28 -32 -44 -15 -44 15 0 51 40 45 50 -3 5 5 11 17
13 l23 4 -23 2 c-13 0 -33 -10 -47 -25z"/>
<path d="M1990 3468 l-35 -11 30 -9 c17 -5 64 -16 105 -24 41 -9 82 -20 90
-25 10 -6 5 -7 -15 -3 -28 6 -29 5 -14 -10 9 -10 28 -19 43 -20 22 -3 26 0 20
17 -9 28 -56 74 -88 87 -34 12 -89 12 -136 -2z"/>
<path d="M2483 3393 c0 -7 6 -13 13 -13 6 0 14 6 17 13 3 7 -3 13 -12 13 -10
0 -18 -6 -18 -13z"/>
<path d="M2445 3380 c-3 -5 -2 -10 4 -10 5 0 13 5 16 10 3 6 2 10 -4 10 -5 0
-13 -4 -16 -10z"/>
<path d="M2518 3322 c-16 -9 -28 -20 -28 -24 0 -12 5 -10 44 13 35 21 36 21
36 1 0 -11 7 -25 15 -32 13 -11 14 -10 8 6 -6 17 -5 17 10 5 9 -7 14 -17 11
-22 -6 -11 26 -12 42 -1 6 4 15 15 21 25 8 16 12 17 24 5 17 -17 49 -30 49
-20 -1 50 -170 83 -232 44z"/>
<path d="M2001 3313 c-44 -23 -60 -48 -43 -65 10 -10 15 -8 27 9 40 57 65 67
65 28 0 -46 71 -53 95 -9 5 10 11 21 12 23 2 2 9 -2 17 -8 8 -7 17 -8 20 -3
22 36 -133 56 -193 25z"/>
<path d="M3254 3195 c21 -16 32 -13 21 4 -3 6 -14 11 -23 11 -15 -1 -15 -2 2
-15z"/>
<path d="M3126 3084 c-4 -10 -1 -24 8 -33 14 -13 16 -13 22 3 4 10 1 24 -8 33
-14 13 -16 13 -22 -3z"/>
<path d="M2170 2982 c0 -5 9 -12 21 -15 13 -3 19 -1 16 6 -5 15 -37 22 -37 9z"/>
<path d="M2305 2971 c-15 -6 -7 -9 30 -14 54 -6 61 -4 50 12 -7 13 -50 13 -80
2z"/>
<path d="M3060 2763 c0 -22 2 -25 10 -13 13 20 13 40 0 40 -5 0 -10 -12 -10
-27z"/>
<path d="M2120 2739 c-18 -4 -39 -5 -47 -2 -7 3 -13 1 -13 -5 0 -12 47 -25 61
-16 6 3 34 10 63 13 l51 7 -41 5 c-23 2 -56 1 -74 -2z"/>
<path d="M2377 2730 c55 -4 112 -10 126 -14 14 -3 36 -2 48 2 24 9 -131 23
-226 20 -27 0 -4 -4 52 -8z"/>
<path d="M3080 2320 c0 -5 -21 -31 -47 -57 -246 -250 -374 -388 -438 -472 -22
-29 -60 -78 -85 -109 -25 -31 -54 -68 -64 -82 -14 -19 -17 -20 -11 -5 4 11 8
28 10 37 2 10 15 52 29 94 30 89 30 85 12 78 -8 -3 -17 -20 -20 -37 -15 -75
-78 -257 -101 -291 -36 -53 -55 -92 -85 -176 -15 -41 -48 -129 -73 -195 -24
-66 -66 -185 -92 -265 -47 -150 -60 -179 -70 -169 -3 4 -10 90 -15 193 -13
244 4 613 35 748 10 45 10 58 0 61 -7 3 -42 67 -79 142 -53 106 -68 146 -68
181 0 24 -2 44 -4 44 -3 0 -25 -9 -49 -20 -54 -24 -161 -65 -240 -91 -81 -27
-243 -87 -282 -105 -17 -8 -34 -14 -39 -14 -24 0 -178 -70 -229 -105 -83 -56
-107 -105 -142 -290 -3 -16 -11 -37 -18 -45 -7 -8 -18 -33 -25 -55 -7 -22 -21
-56 -31 -75 -11 -20 -23 -56 -28 -80 -28 -137 -77 -295 -97 -315 -15 -15 -25
-41 -29 -79 -8 -59 -10 -62 -106 -135 -17 -14 -38 -39 -45 -57 -7 -17 -25 -45
-38 -61 -30 -36 -46 -74 -46 -112 0 -16 -28 -82 -62 -147 -34 -65 -70 -137
-80 -159 -11 -22 -25 -52 -33 -68 l-14 -27 267 1 c147 0 260 3 252 6 -39 14
-63 78 -41 112 6 9 -1 29 -20 59 -47 74 -33 142 28 142 22 0 24 3 19 24 -3 14
-3 32 0 41 9 22 61 47 85 40 10 -4 46 -39 79 -78 34 -40 71 -83 84 -97 32 -34
119 -166 141 -213 27 -59 28 -37 2 34 -13 35 -27 82 -31 104 -4 22 -19 64 -33
94 -31 66 -39 112 -24 140 17 31 62 28 88 -7 19 -26 63 -114 63 -126 0 -3 14
-35 30 -69 17 -35 30 -75 30 -89 0 -14 12 -46 26 -72 l26 -46 1354 0 1355 0
24 54 c42 96 50 159 36 290 -10 86 -18 123 -33 141 -19 24 -19 32 -9 127 7 63
18 112 29 129 9 14 30 46 46 70 51 76 70 179 70 374 l0 170 -34 83 c-30 75
-41 90 -106 147 -40 35 -95 76 -121 91 -26 15 -64 37 -83 49 -19 12 -51 28
-70 36 -31 12 -73 36 -272 156 -31 19 -62 41 -69 49 -6 8 -16 14 -21 14 -6 0
-27 13 -48 30 -56 44 -85 53 -121 35 -28 -15 -29 -15 -29 6 0 26 -137 266
-156 273 -8 3 -14 1 -14 -4z m144 -360 c-10 -16 -20 -28 -22 -26 -4 5 28 56
35 56 2 0 -4 -13 -13 -30z m-44 -59 c-5 -11 -15 -23 -21 -27 -6 -3 -3 5 6 20
20 30 30 35 15 7z m-68 -90 c-9 -16 -18 -28 -21 -26 -4 5 27 55 34 55 2 0 -4
-13 -13 -29z m-225 -97 c-3 -3 -12 -4 -19 -1 -8 3 -5 6 6 6 11 1 17 -2 13 -5z
m-1 -55 c3 -6 -5 -3 -20 6 -14 10 -26 19 -26 22 0 7 39 -17 46 -28z m-829 -36
c-3 -10 -5 -4 -5 12 0 17 2 24 5 18 2 -7 2 -21 0 -30z m647 -22 c17 -19 17
-19 0 -17 -9 2 -18 10 -20 19 -3 21 -1 21 20 -2z m-1107 -23 c-3 -8 -6 -5 -6
6 -1 11 2 17 5 13 3 -3 4 -12 1 -19z m1053 -54 c41 -37 50 -54 28 -54 -16 0
-78 61 -78 77 0 19 6 17 50 -23z m-59 -457 c-10 -9 -11 -8 -5 6 3 10 9 15 12
12 3 -3 0 -11 -7 -18z m-18 -32 c-3 -9 -8 -14 -10 -11 -3 3 -2 9 2 15 9 16 15
13 8 -4z m160 -382 c-13 -2 -35 -2 -50 0 -16 2 -5 4 22 4 28 0 40 -2 28 -4z
m-954 -53 c0 -9 -4 -8 -9 5 -5 11 -9 27 -9 35 0 9 4 8 9 -5 5 -11 9 -27 9 -35z
m809 43 c-10 -2 -28 -2 -40 0 -13 2 -5 4 17 4 22 1 32 -1 23 -4z m-115 -10
c-7 -2 -19 -2 -25 0 -7 3 -2 5 12 5 14 0 19 -2 13 -5z m587 -103 c0 -6 -19
-10 -45 -8 -58 4 -58 18 0 18 25 0 45 -5 45 -10z m-1313 -282 c-2 -13 -4 -5
-4 17 -1 22 1 32 4 23 2 -10 2 -28 0 -40z"/>
<path d="M2139 2293 c15 -28 69 -73 108 -90 18 -7 66 -13 106 -13 65 0 77 3
101 25 15 14 31 25 36 25 14 0 17 22 6 47 -11 22 -14 23 -91 15 -97 -9 -153
-8 -224 3 -52 8 -53 7 -42 -12z"/>
<path d="M2017 2145 c-9 -19 -19 -56 -22 -82 -6 -48 -5 -48 55 -111 33 -35 60
-68 60 -73 0 -5 5 -9 10 -9 6 0 -1 18 -15 39 -33 49 -55 130 -55 203 0 68 -11
79 -33 33z"/>
<path d="M1950 1990 c0 -11 5 -20 10 -20 6 0 10 5 10 11 0 5 5 7 10 4 6 -3 10
-2 10 3 0 8 -22 22 -36 22 -2 0 -4 -9 -4 -20z"/>
<path d="M2380 1916 c-32 -12 -33 -13 -11 -19 25 -6 81 10 81 24 0 12 -28 10
-70 -5z"/>
<path d="M2330 1889 c0 -5 9 -9 20 -9 11 0 20 2 20 4 0 2 -9 6 -20 9 -11 3
-20 1 -20 -4z"/>
<path d="M2010 1852 c0 -17 22 -62 31 -62 4 0 0 15 -8 33 -19 39 -23 44 -23
29z"/>
<path d="M2160 1810 c6 -11 13 -20 16 -20 2 0 0 9 -6 20 -6 11 -13 20 -16 20
-2 0 0 -9 6 -20z"/>
<path d="M2123 1715 c22 -42 42 -140 48 -230 0 -5 4 -1 8 10 18 43 -30 227
-66 256 -10 9 -6 -4 10 -36z"/>
<path d="M2270 1450 c0 -5 5 -10 10 -10 6 0 10 5 10 10 0 6 -4 10 -10 10 -5 0
-10 -4 -10 -10z"/>
<path d="M2250 1384 c0 -8 5 -12 10 -9 6 3 10 10 10 16 0 5 -4 9 -10 9 -5 0
-10 -7 -10 -16z"/>
</g>
</svg>
