<svg viewBox="0 0 16 16" xmlns="http://www.w3.org/2000/svg" fill-rule="evenodd" clip-rule="evenodd" stroke-linejoin="round" stroke-miterlimit="1.414"><path d="M 4.988281 0.117188 C 4.976562 0.179688 4.867188 1.027344 4.75 2 C 4.632812 2.972656 4.523438 3.820312 4.511719 3.882812 L 4.492188 4 L 1 4 L 1 6 L 4.257812 6 L 4.238281 6.117188 C 4.226562 6.179688 4.117188 7.027344 4 8 C 3.882812 8.972656 3.773438 9.820312 3.761719 9.882812 L 3.742188 10 L 1 10 L 1 12 L 3.507812 12 L 3.488281 12.117188 C 3.476562 12.179688 3.367188 13.027344 3.25 14 C 3.132812 14.972656 3.023438 15.820312 3.011719 15.882812 L 2.992188 16 L 4.992188 16 L 5.011719 15.882812 C 5.023438 15.820312 5.132812 14.972656 5.25 14 C 5.367188 13.027344 5.476562 12.179688 5.488281 12.117188 L 5.507812 12 L 9.507812 12 L 9.488281 12.117188 C 9.476562 12.179688 9.367188 13.027344 9.25 14 C 9.132812 14.972656 9.023438 15.820312 9.011719 15.882812 L 8.992188 16 L 10.992188 16 L 11.011719 15.882812 C 11.023438 15.820312 11.132812 14.972656 11.25 14 C 11.367188 13.027344 11.476562 12.179688 11.488281 12.117188 L 11.507812 12 L 15 12 L 15 10 L 11.742188 10 L 11.761719 9.882812 C 11.773438 9.820312 11.882812 8.960938 12 7.984375 C 12.121094 7.003906 12.226562 6.15625 12.238281 6.101562 L 12.253906 6 L 15 6 L 15 4 L 13.75 4 C 13.0625 4 12.5 3.992188 12.5 3.980469 C 12.5 3.945312 12.96875 0.199219 12.984375 0.101562 L 13.003906 0 L 11.007812 0 L 10.988281 0.117188 C 10.976562 0.179688 10.867188 1.027344 10.75 2 C 10.632812 2.972656 10.523438 3.820312 10.511719 3.882812 L 10.492188 4 L 6.492188 4 L 6.511719 3.882812 C 6.523438 3.820312 6.632812 2.972656 6.75 2 C 6.867188 1.027344 6.976562 0.179688 6.988281 0.117188 L 7.007812 0 L 5.007812 0 Z M 10.238281 6.117188 C 10.226562 6.179688 10.117188 7.027344 10 8 C 9.882812 8.972656 9.773438 9.820312 9.761719 9.882812 L 9.742188 10 L 5.742188 10 L 5.761719 9.882812 C 5.773438 9.820312 5.882812 8.972656 6 8 C 6.117188 7.027344 6.226562 6.179688 6.238281 6.117188 L 6.257812 6 L 10.257812 6 Z M 10.238281 6.117188 "/></svg>
